# xmcd CD database file
#
# Track frame offsets:
#	150
#	19844
#	27135
#	39811
#	42550
#	52762
#	72869
#	79500
#	81934
#	88758
#	91880
#	98781
#	110598
#	114987
#	116822
#	132828
#	137603
#	145269
#	161427
#	162855
#	169900
#	175212
#	184313
#	201551
#	215053
#
# Disc length: 2957 seconds
#
# Revision: 1
# Processed by: cddbd v1.5.2PL0 Copyright (c) Steve Scherf et al.
# Submitted via: CDex 1.70beta3
#
DISCID=570b8b19
DTITLE=Various Artist - ef - a tale of melodies. ORIGINAL SOUNDTRACK ～elegia～
DYEAR=2008
DGENRE=Soundtrack
TTITLE0=TENMON and Eiichiro Yanagi - Overture
TTITLE1=ELISA - ebullient future (English TV-EDIT ver.1)
TTITLE2=TENMON and Eiichiro Yanagi - A moon filled sky
TTITLE3=TENMON and Eiichiro Yanagi - The other side of mask
TTITLE4=TENMON and Eiichiro Yanagi - Dissembles
TTITLE5=TENMON and Eiichiro Yanagi - Separate way
TTITLE6=TENMON and Eiichiro Yanagi - Answer of asking oneself
TTITLE7=TENMON and Eiichiro Yanagi - Embarrassed
TTITLE8=TENMON and Eiichiro Yanagi - Still alive
TTITLE9=TENMON and Eiichiro Yanagi - Scary
TTITLE10=TENMON and Eiichiro Yanagi - Determined herself
TTITLE11=TENMON and Eiichiro Yanagi - Because, he is here.
TTITLE12=TENMON and Eiichiro Yanagi - Who's problem
TTITLE13=TENMON and Eiichiro Yanagi - Abnormal smile
TTITLE14=TENMON and Eiichiro Yanagi - Twins, separate place
TTITLE15=TENMON and Eiichiro Yanagi - Two standpoints
TTITLE16=TENMON and Eiichiro Yanagi - Evening calm
TTITLE17=TENMON and Eiichiro Yanagi - Confession
TTITLE18=TENMON and Eiichiro Yanagi - A girl whom you deserted
TTITLE19=雨宮優子 (CV.中島裕美子) - 願いのカケラ (TV-EDIT ver.A)
TTITLE20=TENMON and Eiichiro Yanagi - Entropy
TTITLE21=TENMON and Eiichiro Yanagi - Small revenge
TTITLE22=TENMON and Eiichiro Yanagi - Kill and come.
TTITLE23=TENMON and Eiichiro Yanagi - Why? Why? Why?
TTITLE24=羽山ミズキ (CV.後藤麻衣) - 笑顔のチカラ (TV-EDIT ver.A)
EXTD=YEAR: 2008
EXTT0=
EXTT1=
EXTT2=
EXTT3=
EXTT4=
EXTT5=
EXTT6=
EXTT7=
EXTT8=
EXTT9=
EXTT10=
EXTT11=
EXTT12=
EXTT13=
EXTT14=
EXTT15=
EXTT16=
EXTT17=
EXTT18=
EXTT19=
EXTT20=
EXTT21=
EXTT22=
EXTT23=
EXTT24=
PLAYORDER=
